<?xml version="1.0" encoding="UTF-8"?>
<svg width="940" height="788" version="1.1" viewBox="0 0 940 788" xml:space="preserve" xmlns="http://www.w3.org/2000/svg">

<rect width="100%" height="100%" fill="none"/>
<g transform="matrix(.658 0 0 .658 470 394)">
<g vector-effect="non-scaling-stroke" style="">
		
		<g id="tight-bounds" transform="matrix(3.1619 0 0 3.1619 .4646 .3108)">
<rect x="-158.15" y="-123.6" width="316.3" height="247.2" rx="0" ry="0" fill="none" style="font-file-url:none;is-custom-font:none"/>
</g>
</g>
</g>
<g transform="matrix(1.395 0 0 1.395 469.65 723.74)" fill="#ccc">
		<g transform="matrix(6.8655,0,0,6.8655,249.35,-236.88)">
<path transform="translate(-86.212,-49.975)" d="m94.3 48.2-12.5-12.5c-1-1-2.6-1-3.5 0-1 1-1 2.6 0 3.5l1.7 1.8 9 9-10.8 10.8c-1 1-1 2.6 0 3.5 0.5 0.5 1.1 0.7 1.8 0.7s1.3-0.2 1.8-0.7l12.5-12.5c0.9-1 0.9-2.6 0-3.6z" fill="#ccc" stroke-linecap="round"/>
</g>
		<g transform="matrix(6.8655,0,0,6.8655,-248.15,-236.88)">
<path transform="translate(-13.75,-49.975)" d="m21.8 39.3c1-1 1-2.6 0-3.5-1-1-2.6-1-3.5 0l-12.6 12.4c-1 1-1 2.6 0 3.5l12.5 12.5c0.5 0.5 1.1 0.7 1.8 0.7s1.3-0.2 1.8-0.7c1-1 1-2.6 0-3.5l-1.8-1.7-9-9 9-9z" fill="#ccc" stroke-linecap="round"/>
</g>
		<g transform="matrix(6.8655 0 0 6.8655 .3845 -236.37)">
<path transform="translate(-49.95,-50.05)" d="m72.4 29.3c0-0.1 0-0.2-0.1-0.2 0-0.1-0.1-0.2-0.1-0.2 0-0.1-0.1-0.1-0.1-0.2-0.2-0.3-0.4-0.5-0.7-0.7-0.1 0-0.1-0.1-0.2-0.1s-0.2-0.1-0.2-0.1c-0.1 0-0.2-0.1-0.3-0.1s-0.1 0-0.2-0.1h-30.5c-0.7 0-1.3 0.3-1.8 0.7l-10 10c-0.1 0.1-0.2 0.2-0.3 0.4 0 0.1-0.1 0.1-0.1 0.2s-0.1 0.2-0.1 0.2c0 0.1-0.1 0.2-0.1 0.2 0 0.1 0 0.1-0.1 0.2v30.5c0 1.4 1.1 2.5 2.5 2.5h30.5c0.1 0 0.1 0 0.2-0.1 0.1 0 0.2 0 0.2-0.1 0.1 0 0.2-0.1 0.2-0.1 0.1 0 0.1-0.1 0.2-0.1 0.1-0.1 0.3-0.2 0.4-0.3l10-10c0.5-0.5 0.7-1.1 0.7-1.8v-30.5zm-14.9 38.2h-25v-25h25zm1.5-30h-23l5-5h23zm8.5 21.5-5 5v-23l5-5z" fill="#ccc" stroke-linecap="round"/>
</g>
		</g></svg>
