<?xml version="1.0" encoding="utf-8"?>
<!-- Generator: Adobe Illustrator 24.3.0, SVG Export Plug-In . SVG Version: 6.00 Build 0)  -->
<svg version="1.1" id="katman_1" xmlns="http://www.w3.org/2000/svg" xmlns:xlink="http://www.w3.org/1999/xlink" x="0px" y="0px"
	 viewBox="0 0 940 788" style="enable-background:new 0 0 940 788;" xml:space="preserve">
<style type="text/css">
	.st0{fill:#FFFFFF;}
	.st1{fill:#97978D;}
	.st2{fill:#CCCCCC;}
	.st3{fill:none;}
</style>
<rect width="940" height="788"/>
<g id="_x35_63913" transform="matrix(0.658 0 0 0.658 470 394)">
	<g vector-effect="non-scaling-stroke">
		<g id="textblock" transform="matrix(2.5286 0 0 2.5286 0.4697 186.9834)">
			<path class="st0" d="M196.8-46.1c-1.9-16.8-7.2-21.4-7.2-21.4c-16.3-17.3-36.6-13.5-54.8-11.1c-32.2,0.1-64.3,3.8-96.4,5.8
				C-29-72.5-97-77.5-164.1-65.2c-6.3,3.8-40.2,0.7-32.5,21.3c2,8.5,9.3,18,9.1,25.9c1,1.4,2.4-1.8,3,0.2c2.1,5.3,5.5,2.8,8.3,6
				c-3.9,8.4-1.1,15.4,1.6,22.8c-4.7,1.9-10.7,1-13.4,7.3c-0.3,4.6-1.8,3.7-3.4,3.5c-1.2-0.1-3.6,0.4-3.2,1.8
				c1.4,4.9-4.6,7.8-0.8,12.6c-2.6,5.2,1.8,9.8,1.2,15.4c-0.1,1.1,0.3,2.1,1,2.4c2.9,1.4-1.3,4.3-0.9,7.3
				c29.6,20.9,61.6,6.4,91.9,16c7.9-6.7,2,2.4,5.1,1c2.5-1.6,4.2,5.2,7,1.3c0.4-1.1-0.2-3.7,1.3-3.2c0.8,0.3,1.5,0.2,1.6-1.3
				c0.2-2.3-1.3-0.9-1.7-2.1c4.2-6.1,3.2,8.4,7.1,7.8c-0.2-1.8-1.3-4.3,1-4c2.3-2.5,2.4-4.7,4.5,1.1c0.1,1.2,0.4,2.1,1,2.7
				c6.5-6.2,13,2.2,19.8-0.6c4.2-3.1,8.2,1.7,12.4,0.5c1.5-0.9,3-2.6,4.4,0.2c17.5,0.6,36.2-1.9,52.8,0.1
				c44.4-3.8,91.9,1.5,138.7-3.4c11-1.9,22.5-4.6,33.3-6.8c0,0,8.7-6,8.7-32.8s1.9-23.5,2.1-44.8C197.3-28.5,198.6-29.3,196.8-46.1
				L196.8-46.1z"/>
		</g>
		<g id="text-0" transform="matrix(5.8835 0 0 5.8835 0.5002 186.9838)">
			<path class="st1" d="M-57.1,18.6L-57.1,18.6c1.5-1,3-2.4,4.5-4c1.5-1.6,2.8-3.4,4-5.2c1.2-1.9,2.2-3.8,3-5.9c0.8-2,1.4-4,1.7-5.9
				l0,0c0-0.4-0.2-0.7-0.7-0.8l0,0c-0.5,0-1.1,0.4-1.9,1.2c-0.8,0.8-1.7,1.9-2.7,3.1c-1,1.3-2,2.7-3,4.2c-1,1.6-1.9,3.1-2.8,4.7
				c-0.8,1.6-1.5,3-2.1,4.3c-0.6,1.4-0.9,2.4-1,3.3l0,0c-0.3,0-0.6-0.3-0.8-1l0,0c-0.1-0.2-0.2-0.3-0.4-0.5
				c-0.2-0.2-0.4-0.4-0.8-0.7l0,0c-0.2-0.1-0.3-0.3-0.5-0.5c-0.2-0.2-0.3-0.3-0.3-0.5l0,0c-0.1-0.3-0.2-0.7-0.2-1.3l0,0
				c0-2,0.2-4.2,0.8-6.7s1.2-5,2-7.5c0.8-2.6,1.8-5.1,2.9-7.6c1.1-2.5,2.2-4.8,3.4-6.8c1.2-2.1,2.4-3.8,3.6-5.2
				c1.2-1.4,2.3-2.4,3.4-2.9l0,0c0.3,0.1,0.7,0.3,1.2,0.5c0.5,0.2,0.9,0.5,1.4,0.8s0.9,0.6,1.3,0.9c0.4,0.3,0.7,0.6,0.9,0.8l0,0
				c-3.7,3-6.8,6.8-9.5,11.4c-2.7,4.7-4.9,10.1-6.6,16.5l0,0c0.9-1.7,2-3.4,3.1-5c1.2-1.6,2.3-3,3.5-4.3c1.1-1.2,2.2-2.2,3.3-3
				c1-0.7,1.9-1.1,2.6-1.1l0,0c0.5,0.1,1,0.4,1.5,0.7c0.5,0.3,1,0.7,1.4,1.2c0.4,0.5,0.7,1,1,1.6c0.3,0.6,0.4,1.1,0.5,1.7l0,0
				c0,1.4-0.3,2.9-0.7,4.5c-0.5,1.6-1.1,3.1-1.8,4.7c-0.8,1.5-1.6,3-2.6,4.4c-1,1.4-2,2.6-3,3.7c-1.1,1.1-2.1,1.9-3.1,2.5
				c-1.1,0.6-2,0.9-3,0.9l0,0c-0.4,0-0.8,0-1.2-0.1c-0.4-0.1-0.8-0.2-1.1-0.4c-0.4-0.2-0.6-0.3-0.9-0.5
				C-57,18.9-57.1,18.7-57.1,18.6z M-36.3,8.4L-36.3,8.4c0-2.3,0.3-4.6,0.8-6.9c0.6-2.2,1.3-4.4,2.3-6.4c1-2,2.2-3.9,3.6-5.5
				c1.4-1.7,2.9-3.1,4.6-4.4c1.7-1.2,3.4-2.2,5.3-2.9c1.9-0.7,3.8-1,5.8-1l0,0c2.3,0,4.1,0.5,5.4,1.5c1.3,1,1.9,2.3,1.9,4.1l0,0
				c0,0.7-0.1,1.3-0.3,2c-0.2,0.7-0.4,1.4-0.8,2.1c-0.3,0.7-0.8,1.3-1.2,2c-0.5,0.6-1,1.2-1.5,1.6l0,0c-0.9-0.1-1.6-0.5-2.2-1.2
				c-0.6-0.6-1-1.4-1.2-2.3l0,0c1.2-1,2.1-2,2.8-3c0.7-1,1-2,1-2.9l0,0c0-1.5-0.9-2.2-2.8-2.2l0,0c-0.8,0-1.6,0.2-2.4,0.5
				c-0.8,0.3-1.6,0.8-2.5,1.3c-0.8,0.6-1.6,1.3-2.4,2.1c-0.8,0.8-1.5,1.7-2.2,2.6l0,0C-27.1-3.8-29.4,3-29.4,10l0,0
				c0,2.5,0.4,4.4,1.1,5.9c0.8,1.5,1.8,2.4,3,2.7l0,0c1.4-0.3,3.3-1.2,5.5-2.8c2.2-1.5,4.6-3.4,7.2-5.8l0,0c0.3,0.3,0.5,0.7,0.6,1.1
				l0,0c-1,1.3-2,2.5-3,3.6s-2.1,2.2-3.1,3.2c-1,1-2,1.8-3,2.6c-1,0.7-1.9,1.3-2.7,1.7l0,0c-4.1-0.1-7.3-1.2-9.4-3.5
				C-35.3,16.3-36.3,12.9-36.3,8.4z M-8.7,15L-8.7,15c0-1.5,0.4-3.5,1.1-6.2c0.7-2.6,1.7-5.7,2.9-9.3l0,0c2.1-5.6,4-10.3,5.8-14.1
				c1.8-3.7,3.6-6.7,5.3-8.8l0,0C6.9-23.2,7.4-23,8-22.8c0.6,0.3,1.2,0.6,1.7,0.9c0.6,0.3,1.1,0.6,1.5,1c0.5,0.3,0.7,0.6,0.9,0.8
				l0,0c-2.6,3.1-4.9,6.4-6.8,9.9S1.5-2.6-0.2,1.9l0,0c-1.4,3.9-2.5,7.5-3.2,10.6c-0.7,3.2-1.1,5.8-1.1,7.9l0,0c0,0.6,0,0.9,0,1
				s0,0.3,0,0.4l0,0c-0.5-0.1-0.9-0.2-1.2-0.4c-0.3-0.2-0.5-0.4-0.7-0.6l0,0c-0.1-0.2-0.2-0.4-0.5-0.7c-0.3-0.3-0.6-0.6-0.8-0.7l0,0
				c-0.3-0.2-0.5-0.7-0.8-1.6C-8.6,17-8.7,16.1-8.7,15z M20.2-2L20.2-2c0.3,0,0.7,0.1,1.2,0.2c0.4,0.1,0.9,0.3,1.2,0.5
				C23-1.2,23.3-1,23.6-0.8c0.2,0.2,0.4,0.4,0.4,0.5l0,0c-0.7,1.4-1.3,2.8-1.9,4.2c-0.6,1.4-1,2.8-1.4,4.1s-0.7,2.5-0.9,3.6
				c-0.2,1.1-0.3,2.1-0.3,2.9l0,0c0,0.9,0.1,1.7,0.3,2.3c0.2,0.6,0.5,1.1,1,1.3l0,0c-0.4,0.3-0.9,0.5-1.6,0.6
				c-0.6,0.2-1.2,0.2-1.7,0.2l0,0c-1.8,0-2.7-1.2-2.7-3.7l0,0c0-1.9,0.6-4.5,1.9-7.8l0,0c-0.7,1.5-1.4,3-2.3,4.3
				c-0.9,1.4-1.7,2.5-2.6,3.6S9.9,17.5,9,18.1c-0.9,0.7-1.8,1-2.5,1.2l0,0c-1.2-0.1-2.2-0.7-3-1.8c-0.8-1.1-1.2-2.5-1.2-4.3l0,0
				c0-1.9,0.4-3.8,1.2-5.9c0.8-2.1,1.8-4,3.1-5.8c1.2-1.8,2.6-3.2,4.1-4.4c1.5-1.2,2.9-1.8,4.2-1.9l0,0c0.3,0.1,0.7,0.3,1.1,0.6
				c0.4,0.3,0.8,0.6,1.2,1c0.4,0.4,0.7,0.8,1,1.2c0.3,0.4,0.4,0.8,0.4,1.1l0,0c-1.3,0.2-2.7,0.9-4.1,2c-1.4,1.1-2.7,2.4-3.8,4
				c-1.2,1.6-2.1,3.2-2.8,5c-0.7,1.8-1.1,3.4-1.1,4.9l0,0c0,0.6,0.2,1,0.7,1.2l0,0c1-0.2,2.1-1,3.3-2.5c1.3-1.4,2.8-3.7,4.6-6.7l0,0
				c0.3-0.6,0.7-1.3,1.1-2c0.4-0.7,0.8-1.5,1.3-2.3c0.4-0.8,0.9-1.6,1.3-2.4C19.5-0.4,19.9-1.2,20.2-2z M43.7-1.7L43.7-1.7
				c0,0.6-0.1,1.3-0.3,2C43.2,1,43,1.6,42.7,2.2c-0.3,0.5-0.5,1-0.8,1.4c-0.3,0.4-0.6,0.6-0.8,0.5l0,0c-0.4,0-0.6-0.3-0.7-0.7l0,0
				c0-0.1,0-0.3,0.1-0.5c0.1-0.2,0.2-0.5,0.3-0.7C40.9,1.9,41,1.6,41,1.3c0.1-0.3,0.1-0.5,0.1-0.7l0,0c0-0.5-0.1-0.9-0.3-1.2
				C40.6-0.9,40.3-1,40-1l0,0c-1.3,0-2.4,0.8-3,2.5c-0.7,1.7-1.1,4.1-1.1,7.4l0,0c0,0.3,0,0.5,0.1,0.6l0,0c0.7,0,1.3-0.1,1.9-0.1
				c0.6,0,1.1,0,1.6,0l0,0c0,0.1,0,0.2,0,0.4l0,0c0,0.3-0.1,0.5-0.2,0.6l0,0c-0.8,0.2-1.4,0.3-1.8,0.4c-0.5,0.1-0.8,0.2-1,0.3
				S36,11.3,36,11.4c-0.1,0.1-0.1,0.3-0.1,0.5l0,0c0,0.3,0,0.5,0,0.8c0,0.3,0,0.6,0,1l0,0c0,2.8-0.8,5-2.3,6.8
				c-1.5,1.7-3.6,2.7-6.3,2.9l0,0c-0.5,0-0.9-0.2-1.4-0.4s-1-0.5-1.4-0.9c-0.5-0.4-0.8-0.8-1.2-1.2c-0.3-0.5-0.6-0.9-0.7-1.4l0,0
				c0-1.3,0.3-2.5,0.8-3.6c0.5-1.1,1.3-2.2,2.2-3.1c0.9-0.9,2-1.6,3.2-2.2c1.3-0.5,2.6-0.9,4.1-1l0,0c0-0.8-0.1-1.7-0.2-2.5
				s-0.3-1.6-0.5-2.3c-0.2-0.7-0.4-1.5-0.5-2.2c-0.2-0.7-0.3-1.4-0.2-2.1l0,0c0-0.9,0.2-1.8,0.6-2.7c0.4-0.9,0.8-1.7,1.4-2.4
				c0.6-0.7,1.3-1.4,2.1-1.9C36.3-7,37.1-7.3,38-7.5l0,0c0.4,0.1,0.9,0.4,1.5,0.9c0.6,0.5,1.2,1,1.8,1.6c0.6,0.6,1.1,1.2,1.6,1.8
				C43.3-2.6,43.6-2.1,43.7-1.7z M27.2,21.1L27.2,21.1c0.8-0.3,1.6-0.8,2.3-1.4c0.7-0.6,1.3-1.4,1.9-2.2c0.5-0.8,1-1.6,1.3-2.5
				c0.3-0.9,0.5-1.8,0.5-2.7l0,0c-0.7,0.1-1.4,0.4-2.2,0.9c-0.8,0.5-1.6,1.1-2.2,1.9c-0.7,0.7-1.3,1.5-1.8,2.2
				c-0.5,0.8-0.7,1.4-0.7,2l0,0C26.2,20.1,26.6,20.7,27.2,21.1z M61-1.7L61-1.7c0,0.6-0.1,1.3-0.3,2C60.5,1,60.3,1.6,60,2.2
				c-0.3,0.5-0.6,1-0.8,1.4c-0.3,0.4-0.6,0.6-0.9,0.5l0,0c-0.4,0-0.6-0.3-0.6-0.7l0,0c0-0.1,0-0.3,0.1-0.5c0.1-0.2,0.2-0.5,0.3-0.7
				c0.1-0.3,0.2-0.5,0.3-0.8c0.1-0.3,0.1-0.5,0.1-0.7l0,0c0-0.5-0.1-0.9-0.3-1.2C57.9-0.9,57.6-1,57.3-1l0,0c-1.3,0-2.3,0.8-3.1,2.5
				c-0.7,1.7-1,4.1-1,7.4l0,0c0,0.3,0,0.5,0,0.6l0,0c0.7,0,1.3-0.1,1.9-0.1c0.6,0,1.1,0,1.6,0l0,0c0,0.1,0.1,0.2,0.1,0.4l0,0
				c0,0.3-0.1,0.5-0.2,0.6l0,0c-0.8,0.2-1.4,0.3-1.8,0.4c-0.4,0.1-0.8,0.2-1,0.3c-0.2,0.1-0.4,0.2-0.4,0.3c0,0.1-0.1,0.3-0.1,0.5
				l0,0c0,0.3,0,0.5,0,0.8c0,0.3,0,0.6,0,1l0,0c0,2.8-0.8,5-2.3,6.8c-1.5,1.7-3.6,2.7-6.3,2.9l0,0c-0.5,0-1-0.2-1.5-0.4
				s-1-0.5-1.4-0.9c-0.4-0.4-0.8-0.8-1.2-1.2c-0.3-0.5-0.6-0.9-0.7-1.4l0,0c0-1.3,0.3-2.5,0.8-3.6c0.5-1.1,1.3-2.2,2.2-3.1
				c0.9-0.9,2-1.6,3.2-2.2c1.3-0.5,2.6-0.9,4.1-1l0,0c0-0.8-0.1-1.7-0.2-2.5c-0.2-0.8-0.3-1.6-0.5-2.3c-0.2-0.7-0.4-1.5-0.5-2.2
				c-0.2-0.7-0.2-1.4-0.2-2.1l0,0c0-0.9,0.2-1.8,0.5-2.7c0.4-0.9,0.9-1.7,1.5-2.4c0.6-0.7,1.3-1.4,2.1-1.9c0.8-0.5,1.6-0.9,2.5-1.1
				l0,0c0.4,0.1,0.9,0.4,1.5,0.9c0.6,0.5,1.2,1,1.8,1.6c0.6,0.6,1.1,1.2,1.6,1.8C60.6-2.6,60.9-2.1,61-1.7z M44.5,21.1L44.5,21.1
				c0.8-0.3,1.6-0.8,2.3-1.4c0.7-0.6,1.3-1.4,1.9-2.2c0.5-0.8,1-1.6,1.3-2.5c0.3-0.9,0.5-1.8,0.5-2.7l0,0c-0.7,0.1-1.4,0.4-2.2,0.9
				c-0.8,0.5-1.5,1.1-2.2,1.9c-0.7,0.7-1.3,1.5-1.8,2.2c-0.5,0.8-0.7,1.4-0.7,2l0,0C43.5,20.1,43.9,20.7,44.5,21.1z"/>
		</g>
		<g id="icon-0" transform="matrix(6.8655 0 0 6.8655 249.3472 -236.8841)">
			<path class="st2" d="M8.1-1.8L-4.4-14.3c-1-1-2.6-1-3.5,0c-1,1-1,2.6,0,3.5L-6.2-9l9,9l-9,9L-8,10.8c-1,1-1,2.6,0,3.5
				c0.5,0.5,1.1,0.7,1.8,0.7s1.3-0.2,1.8-0.7L8.1,1.8C9,0.8,9-0.8,8.1-1.8z"/>
		</g>
		<g id="icon-0_1_" transform="matrix(6.8655 0 0 6.8655 -248.1476 -236.8841)">
			<path class="st2" d="M8-10.7c1-1,1-2.6,0-3.5c-1-1-2.6-1-3.5,0L-8-1.8c-1,1-1,2.6,0,3.5L4.5,14.2c0.5,0.5,1.1,0.7,1.8,0.7
				s1.3-0.2,1.8-0.7c1-1,1-2.6,0-3.5L6.3,9l-9-9l9-9L8-10.7z"/>
		</g>
		<g id="icon-0_2_" transform="matrix(6.8655 0 0 6.8655 0.3845 -236.3695)">
			<path class="st2" d="M22.5-20.8c0-0.1,0-0.2-0.1-0.2c0-0.1-0.1-0.2-0.1-0.2c0-0.1-0.1-0.1-0.1-0.2c-0.2-0.3-0.4-0.5-0.7-0.7
				c-0.1,0-0.1-0.1-0.2-0.1s-0.2-0.1-0.2-0.1c-0.1,0-0.2-0.1-0.3-0.1c-0.1,0-0.1,0-0.2-0.1c-0.2,0-0.3,0-0.5,0h-30
				c-0.7,0-1.3,0.3-1.8,0.7l-10,10c-0.1,0.1-0.2,0.2-0.3,0.4c0,0.1-0.1,0.1-0.1,0.2c0,0.1-0.1,0.2-0.1,0.2c0,0.1-0.1,0.2-0.1,0.2
				c0,0.1,0,0.1-0.1,0.2c0,0.2,0,0.3,0,0.5v30c0,1.4,1.1,2.5,2.5,2.5h30c0.2,0,0.3,0,0.5,0c0.1,0,0.1,0,0.2-0.1c0.1,0,0.2,0,0.2-0.1
				c0.1,0,0.2-0.1,0.2-0.1c0.1,0,0.1-0.1,0.2-0.1c0.1-0.1,0.3-0.2,0.4-0.3l10-10c0.5-0.5,0.7-1.1,0.7-1.8v-30c0-0.2,0-0.3,0-0.5
				C22.5-20.6,22.5-20.6,22.5-20.8z M7.5,17.5h-25v-25h25V17.5z M9-12.5h-23l5-5h23L9-12.5z M17.5,9l-5,5V-9l5-5V9z"/>
		</g>
		<g id="tight-bounds" transform="matrix(3.1619 0 0 3.1619 0.4646 0.3108)">
			<rect x="-158.1" y="-123.6" class="st3" width="316.3" height="247.2"/>
		</g>
	</g>
</g>
</svg>
