<svg enable-background="new 0 0 940 788" version="1.1" viewBox="0 0 940 788" xml:space="preserve" xmlns="http://www.w3.org/2000/svg">
<style type="text/css">
	.st0{fill:#FFFFFF;}
	.st1{fill:#97978D;}
	.st2{fill:#CCCCCC;}
	.st3{fill:none;}
</style>

<g transform="matrix(.658 0 0 .658 470 394)">
	<g vector-effect="non-scaling-stroke">
		<g id="textblock" transform="matrix(2.5286 0 0 2.5286 .4697 186.98)">
			<path class="st0" d="m196.8-46.1c-1.9-16.8-7.2-21.4-7.2-21.4-16.3-17.3-36.6-13.5-54.8-11.1-32.2 0.1-64.3 3.8-96.4 5.8-67.4 0.3-135.4-4.7-202.5 7.6-6.3 3.8-40.2 0.7-32.5 21.3 2 8.5 9.3 18 9.1 25.9 1 1.4 2.4-1.8 3 0.2 2.1 5.3 5.5 2.8 8.3 6-3.9 8.4-1.1 15.4 1.6 22.8-4.7 1.9-10.7 1-13.4 7.3-0.3 4.6-1.8 3.7-3.4 3.5-1.2-0.1-3.6 0.4-3.2 1.8 1.4 4.9-4.6 7.8-0.8 12.6-2.6 5.2 1.8 9.8 1.2 15.4-0.1 1.1 0.3 2.1 1 2.4 2.9 1.4-1.3 4.3-0.9 7.3 29.6 20.9 61.6 6.4 91.9 16 7.9-6.7 2 2.4 5.1 1 2.5-1.6 4.2 5.2 7 1.3 0.4-1.1-0.2-3.7 1.3-3.2 0.8 0.3 1.5 0.2 1.6-1.3 0.2-2.3-1.3-0.9-1.7-2.1 4.2-6.1 3.2 8.4 7.1 7.8-0.2-1.8-1.3-4.3 1-4 2.3-2.5 2.4-4.7 4.5 1.1 0.1 1.2 0.4 2.1 1 2.7 6.5-6.2 13 2.2 19.8-0.6 4.2-3.1 8.2 1.7 12.4 0.5 1.5-0.9 3-2.6 4.4 0.2 17.5 0.6 36.2-1.9 52.8 0.1 44.4-3.8 91.9 1.5 138.7-3.4 11-1.9 22.5-4.6 33.3-6.8 0 0 8.7-6 8.7-32.8s1.9-23.5 2.1-44.8c0.4-21.5 1.7-22.3-0.1-39.1z"/>
		</g>
		<g transform="matrix(5.8835 0 0 5.8835 .5002 186.98)">
			<path class="st1" d="m-57.1 18.6c1.5-1 3-2.4 4.5-4s2.8-3.4 4-5.2c1.2-1.9 2.2-3.8 3-5.9 0.8-2 1.4-4 1.7-5.9 0-0.4-0.2-0.7-0.7-0.8-0.5 0-1.1 0.4-1.9 1.2s-1.7 1.9-2.7 3.1c-1 1.3-2 2.7-3 4.2-1 1.6-1.9 3.1-2.8 4.7-0.8 1.6-1.5 3-2.1 4.3-0.6 1.4-0.9 2.4-1 3.3-0.3 0-0.6-0.3-0.8-1-0.1-0.2-0.2-0.3-0.4-0.5s-0.4-0.4-0.8-0.7c-0.2-0.1-0.3-0.3-0.5-0.5s-0.3-0.3-0.3-0.5c-0.1-0.3-0.2-0.7-0.2-1.3 0-2 0.2-4.2 0.8-6.7s1.2-5 2-7.5c0.8-2.6 1.8-5.1 2.9-7.6s2.2-4.8 3.4-6.8c1.2-2.1 2.4-3.8 3.6-5.2s2.3-2.4 3.4-2.9c0.3 0.1 0.7 0.3 1.2 0.5s0.9 0.5 1.4 0.8 0.9 0.6 1.3 0.9 0.7 0.6 0.9 0.8c-3.7 3-6.8 6.8-9.5 11.4-2.7 4.7-4.9 10.1-6.6 16.5 0.9-1.7 2-3.4 3.1-5 1.2-1.6 2.3-3 3.5-4.3 1.1-1.2 2.2-2.2 3.3-3 1-0.7 1.9-1.1 2.6-1.1 0.5 0.1 1 0.4 1.5 0.7s1 0.7 1.4 1.2 0.7 1 1 1.6 0.4 1.1 0.5 1.7c0 1.4-0.3 2.9-0.7 4.5-0.5 1.6-1.1 3.1-1.8 4.7-0.8 1.5-1.6 3-2.6 4.4s-2 2.6-3 3.7c-1.1 1.1-2.1 1.9-3.1 2.5-1.1 0.6-2 0.9-3 0.9-0.4 0-0.8 0-1.2-0.1s-0.8-0.2-1.1-0.4c-0.4-0.2-0.6-0.3-0.9-0.5-0.2 0.1-0.3-0.1-0.3-0.2zm20.8-10.2c0-2.3 0.3-4.6 0.8-6.9 0.6-2.2 1.3-4.4 2.3-6.4s2.2-3.9 3.6-5.5c1.4-1.7 2.9-3.1 4.6-4.4 1.7-1.2 3.4-2.2 5.3-2.9s3.8-1 5.8-1c2.3 0 4.1 0.5 5.4 1.5s1.9 2.3 1.9 4.1c0 0.7-0.1 1.3-0.3 2s-0.4 1.4-0.8 2.1c-0.3 0.7-0.8 1.3-1.2 2-0.5 0.6-1 1.2-1.5 1.6-0.9-0.1-1.6-0.5-2.2-1.2-0.6-0.6-1-1.4-1.2-2.3 1.2-1 2.1-2 2.8-3s1-2 1-2.9c0-1.5-0.9-2.2-2.8-2.2-0.8 0-1.6 0.2-2.4 0.5s-1.6 0.8-2.5 1.3c-0.8 0.6-1.6 1.3-2.4 2.1s-1.5 1.7-2.2 2.6c-4.8 6.7-7.1 13.5-7.1 20.5 0 2.5 0.4 4.4 1.1 5.9 0.8 1.5 1.8 2.4 3 2.7 1.4-0.3 3.3-1.2 5.5-2.8 2.2-1.5 4.6-3.4 7.2-5.8 0.3 0.3 0.5 0.7 0.6 1.1-1 1.3-2 2.5-3 3.6s-2.1 2.2-3.1 3.2-2 1.8-3 2.6c-1 0.7-1.9 1.3-2.7 1.7-4.1-0.1-7.3-1.2-9.4-3.5-2.1-2.4-3.1-5.8-3.1-10.3zm27.6 6.6c0-1.5 0.4-3.5 1.1-6.2 0.7-2.6 1.7-5.7 2.9-9.3 2.1-5.6 4-10.3 5.8-14.1 1.8-3.7 3.6-6.7 5.3-8.8 0.5 0.2 1 0.4 1.6 0.6 0.6 0.3 1.2 0.6 1.7 0.9 0.6 0.3 1.1 0.6 1.5 1 0.5 0.3 0.7 0.6 0.9 0.8-2.6 3.1-4.9 6.4-6.8 9.9s-3.8 7.6-5.5 12.1c-1.4 3.9-2.5 7.5-3.2 10.6-0.7 3.2-1.1 5.8-1.1 7.9v1s0 0.3 0 0.4c-0.5-0.1-0.9-0.2-1.2-0.4s-0.5-0.4-0.7-0.6c-0.1-0.2-0.2-0.4-0.5-0.7s-0.6-0.6-0.8-0.7c-0.3-0.2-0.5-0.7-0.8-1.6-0.1-0.8-0.2-1.7-0.2-2.8zm28.9-17c0.3 0 0.7 0.1 1.2 0.2 0.4 0.1 0.9 0.3 1.2 0.5 0.4 0.1 0.7 0.3 1 0.5 0.2 0.2 0.4 0.4 0.4 0.5-0.7 1.4-1.3 2.8-1.9 4.2s-1 2.8-1.4 4.1-0.7 2.5-0.9 3.6-0.3 2.1-0.3 2.9c0 0.9 0.1 1.7 0.3 2.3s0.5 1.1 1 1.3c-0.4 0.3-0.9 0.5-1.6 0.6-0.6 0.2-1.2 0.2-1.7 0.2-1.8 0-2.7-1.2-2.7-3.7 0-1.9 0.6-4.5 1.9-7.8-0.7 1.5-1.4 3-2.3 4.3-0.9 1.4-1.7 2.5-2.6 3.6s-1.9 2.2-2.8 2.8c-0.9 0.7-1.8 1-2.5 1.2-1.2-0.1-2.2-0.7-3-1.8s-1.2-2.5-1.2-4.3c0-1.9 0.4-3.8 1.2-5.9s1.8-4 3.1-5.8c1.2-1.8 2.6-3.2 4.1-4.4s2.9-1.8 4.2-1.9c0.3 0.1 0.7 0.3 1.1 0.6s0.8 0.6 1.2 1 0.7 0.8 1 1.2 0.4 0.8 0.4 1.1c-1.3 0.2-2.7 0.9-4.1 2s-2.7 2.4-3.8 4c-1.2 1.6-2.1 3.2-2.8 5s-1.1 3.4-1.1 4.9c0 0.6 0.2 1 0.7 1.2 1-0.2 2.1-1 3.3-2.5 1.3-1.4 2.8-3.7 4.6-6.7 0.3-0.6 0.7-1.3 1.1-2s0.8-1.5 1.3-2.3c0.4-0.8 0.9-1.6 1.3-2.4 0.4-0.7 0.8-1.5 1.1-2.3zm23.5 0.3c0 0.6-0.1 1.3-0.3 2s-0.4 1.3-0.7 1.9c-0.3 0.5-0.5 1-0.8 1.4s-0.6 0.6-0.8 0.5c-0.4 0-0.6-0.3-0.7-0.7 0-0.1 0-0.3 0.1-0.5s0.2-0.5 0.3-0.7c0.1-0.3 0.2-0.6 0.2-0.9 0.1-0.3 0.1-0.5 0.1-0.7 0-0.5-0.1-0.9-0.3-1.2s-0.5-0.4-0.8-0.4c-1.3 0-2.4 0.8-3 2.5-0.7 1.7-1.1 4.1-1.1 7.4 0 0.3 0 0.5 0.1 0.6 0.7 0 1.3-0.1 1.9-0.1h1.6v0.4c0 0.3-0.1 0.5-0.2 0.6-0.8 0.2-1.4 0.3-1.8 0.4-0.5 0.1-0.8 0.2-1 0.3s-0.5 0.2-0.5 0.3c-0.1 0.1-0.1 0.3-0.1 0.5v0.8 1c0 2.8-0.8 5-2.3 6.8-1.5 1.7-3.6 2.7-6.3 2.9-0.5 0-0.9-0.2-1.4-0.4s-1-0.5-1.4-0.9c-0.5-0.4-0.8-0.8-1.2-1.2-0.3-0.5-0.6-0.9-0.7-1.4 0-1.3 0.3-2.5 0.8-3.6s1.3-2.2 2.2-3.1 2-1.6 3.2-2.2c1.3-0.5 2.6-0.9 4.1-1 0-0.8-0.1-1.7-0.2-2.5s-0.3-1.6-0.5-2.3-0.4-1.5-0.5-2.2c-0.2-0.7-0.3-1.4-0.2-2.1 0-0.9 0.2-1.8 0.6-2.7s0.8-1.7 1.4-2.4 1.3-1.4 2.1-1.9c0.7-0.5 1.5-0.8 2.4-1 0.4 0.1 0.9 0.4 1.5 0.9s1.2 1 1.8 1.6 1.1 1.2 1.6 1.8c0.4 0.6 0.7 1.1 0.8 1.5zm-16.5 22.8c0.8-0.3 1.6-0.8 2.3-1.4s1.3-1.4 1.9-2.2c0.5-0.8 1-1.6 1.3-2.5s0.5-1.8 0.5-2.7c-0.7 0.1-1.4 0.4-2.2 0.9s-1.6 1.1-2.2 1.9c-0.7 0.7-1.3 1.5-1.8 2.2-0.5 0.8-0.7 1.4-0.7 2-0.1 0.8 0.3 1.4 0.9 1.8zm33.8-22.8c0 0.6-0.1 1.3-0.3 2s-0.4 1.3-0.7 1.9c-0.3 0.5-0.6 1-0.8 1.4-0.3 0.4-0.6 0.6-0.9 0.5-0.4 0-0.6-0.3-0.6-0.7 0-0.1 0-0.3 0.1-0.5s0.2-0.5 0.3-0.7c0.1-0.3 0.2-0.5 0.3-0.8s0.1-0.5 0.1-0.7c0-0.5-0.1-0.9-0.3-1.2-0.3-0.4-0.6-0.5-0.9-0.5-1.3 0-2.3 0.8-3.1 2.5-0.7 1.7-1 4.1-1 7.4v0.6c0.7 0 1.3-0.1 1.9-0.1h1.6c0 0.1 0.1 0.2 0.1 0.4 0 0.3-0.1 0.5-0.2 0.6-0.8 0.2-1.4 0.3-1.8 0.4s-0.8 0.2-1 0.3-0.4 0.2-0.4 0.3-0.1 0.3-0.1 0.5v0.8 1c0 2.8-0.8 5-2.3 6.8-1.5 1.7-3.6 2.7-6.3 2.9-0.5 0-1-0.2-1.5-0.4s-1-0.5-1.4-0.9l-1.2-1.2c-0.3-0.5-0.6-0.9-0.7-1.4 0-1.3 0.3-2.5 0.8-3.6s1.3-2.2 2.2-3.1 2-1.6 3.2-2.2c1.3-0.5 2.6-0.9 4.1-1 0-0.8-0.1-1.7-0.2-2.5-0.2-0.8-0.3-1.6-0.5-2.3s-0.4-1.5-0.5-2.2c-0.2-0.7-0.2-1.4-0.2-2.1 0-0.9 0.2-1.8 0.5-2.7 0.4-0.9 0.9-1.7 1.5-2.4s1.3-1.4 2.1-1.9 1.6-0.9 2.5-1.1c0.4 0.1 0.9 0.4 1.5 0.9s1.2 1 1.8 1.6 1.1 1.2 1.6 1.8c0.3 0.7 0.6 1.2 0.7 1.6zm-16.5 22.8c0.8-0.3 1.6-0.8 2.3-1.4s1.3-1.4 1.9-2.2c0.5-0.8 1-1.6 1.3-2.5s0.5-1.8 0.5-2.7c-0.7 0.1-1.4 0.4-2.2 0.9s-1.5 1.1-2.2 1.9c-0.7 0.7-1.3 1.5-1.8 2.2-0.5 0.8-0.7 1.4-0.7 2-0.1 0.8 0.3 1.4 0.9 1.8z"/>
		</g>
		<g transform="matrix(6.8655 0 0 6.8655 249.35 -236.88)">
			<path class="st2" d="m8.1-1.8-12.5-12.5c-1-1-2.6-1-3.5 0-1 1-1 2.6 0 3.5l1.7 1.8 9 9-10.8 10.8c-1 1-1 2.6 0 3.5 0.5 0.5 1.1 0.7 1.8 0.7s1.3-0.2 1.8-0.7l12.5-12.5c0.9-1 0.9-2.6 0-3.6z"/>
		</g>
		<g id="icon-0_1_" transform="matrix(6.8655 0 0 6.8655 -248.15 -236.88)">
			<path class="st2" d="m8-10.7c1-1 1-2.6 0-3.5-1-1-2.6-1-3.5 0l-12.5 12.4c-1 1-1 2.6 0 3.5l12.5 12.5c0.5 0.5 1.1 0.7 1.8 0.7s1.3-0.2 1.8-0.7c1-1 1-2.6 0-3.5l-1.8-1.7-9-9 10.7-10.7z"/>
		</g>
		<g id="icon-0_2_" transform="matrix(6.8655 0 0 6.8655 .3845 -236.37)">
			<path class="st2" d="m22.5-20.8c0-0.1 0-0.2-0.1-0.2 0-0.1-0.1-0.2-0.1-0.2 0-0.1-0.1-0.1-0.1-0.2-0.2-0.3-0.4-0.5-0.7-0.7-0.1 0-0.1-0.1-0.2-0.1s-0.2-0.1-0.2-0.1c-0.1 0-0.2-0.1-0.3-0.1s-0.1 0-0.2-0.1h-0.5-30c-0.7 0-1.3 0.3-1.8 0.7l-10 10c-0.1 0.1-0.2 0.2-0.3 0.4 0 0.1-0.1 0.1-0.1 0.2s-0.1 0.2-0.1 0.2c0 0.1-0.1 0.2-0.1 0.2 0 0.1 0 0.1-0.1 0.2v0.5 30c0 1.4 1.1 2.5 2.5 2.5h30 0.5c0.1 0 0.1 0 0.2-0.1 0.1 0 0.2 0 0.2-0.1 0.1 0 0.2-0.1 0.2-0.1 0.1 0 0.1-0.1 0.2-0.1 0.1-0.1 0.3-0.2 0.4-0.3l10-10c0.5-0.5 0.7-1.1 0.7-1.8v-30-0.5-0.2zm-15 38.3h-25v-25h25v25zm1.5-30h-23l5-5h23l-5 5zm8.5 21.5-5 5v-23l5-5v23z"/>
		</g>
		<g id="tight-bounds" transform="matrix(3.1619 0 0 3.1619 .4646 .3108)">
			<rect class="st3" x="-158.1" y="-123.6" width="316.3" height="247.2"/>
		</g>
	</g>
</g>
</svg>
