<svg enable-background="new 0 0 940 788" version="1.1" viewBox="0 0 940 788" xml:space="preserve" xmlns="http://www.w3.org/2000/svg">
<style type="text/css">
	.st0{fill:#FFFFFF;}
	.st1{fill:#97978D;}
	.st2{fill:#CCCCCC;}
	.st3{fill:none;}
	.st4{enable-background:new    ;}
	.st5{fill:none;stroke:#595959;stroke-width:7;}
</style>
<g transform="matrix(.658 0 0 .658 470 394)">
	<g vector-effect="non-scaling-stroke">
		<g id="textblock" transform="matrix(2.5286 0 0 2.5286 .4697 186.98)">
			<path class="st0" d="m196.8-46.1c-1.9-16.8-7.2-21.4-7.2-21.4-16.3-17.3-36.6-13.5-54.8-11.1-32.2 0.1-64.3 3.8-96.4 5.8-67.4 0.3-135.4-4.7-202.5 7.6-6.3 3.8-40.2 0.7-32.5 21.3 2 8.5 9.3 18 9.1 25.9 1 1.4 2.4-1.8 3 0.2 2.1 5.3 5.5 2.8 8.3 6-3.9 8.4-1.1 15.4 1.6 22.8-4.7 1.9-10.7 1-13.4 7.3-0.3 4.6-1.8 3.7-3.4 3.5-1.2-0.1-3.6 0.4-3.2 1.8 1.4 4.9-4.6 7.8-0.8 12.6-2.6 5.2 1.8 9.8 1.2 15.4-0.1 1.1 0.3 2.1 1 2.4 2.9 1.4-1.3 4.3-0.9 7.3 29.6 20.9 61.6 6.4 91.9 16 7.9-6.7 2 2.4 5.1 1 2.5-1.6 4.2 5.2 7 1.3 0.4-1.1-0.2-3.7 1.3-3.2 0.8 0.3 1.5 0.2 1.6-1.3 0.2-2.3-1.3-0.9-1.7-2.1 4.2-6.1 3.2 8.4 7.1 7.8-0.2-1.8-1.3-4.3 1-4 2.3-2.5 2.4-4.7 4.5 1.1 0.1 1.2 0.4 2.1 1 2.7 6.5-6.2 13 2.2 19.8-0.6 4.2-3.1 8.2 1.7 12.4 0.5 1.5-0.9 3-2.6 4.4 0.2 17.5 0.6 36.2-1.9 52.8 0.1 44.4-3.8 91.9 1.5 138.7-3.4 11-1.9 22.5-4.6 33.3-6.8 0 0 8.7-6 8.7-32.8s1.9-23.5 2.1-44.8c0.4-21.5 1.7-22.3-0.1-39.1z"/>
		</g>
		<g transform="matrix(5.8835 0 0 5.8835 .5002 186.98)">
			<path class="st1" d="m-57.1 18.6c1.5-1 3-2.4 4.5-4s2.8-3.4 4-5.2c1.2-1.9 2.2-3.8 3-5.9 0.8-2 1.4-4 1.7-5.9 0-0.4-0.2-0.7-0.7-0.8-0.5 0-1.1 0.4-1.9 1.2s-1.7 1.9-2.7 3.1c-1 1.3-2 2.7-3 4.2-1 1.6-1.9 3.1-2.8 4.7-0.8 1.6-1.5 3-2.1 4.3-0.6 1.4-0.9 2.4-1 3.3-0.3 0-0.6-0.3-0.8-1-0.1-0.2-0.2-0.3-0.4-0.5s-0.4-0.4-0.8-0.7c-0.2-0.1-0.3-0.3-0.5-0.5s-0.3-0.3-0.3-0.5c-0.1-0.3-0.2-0.7-0.2-1.3 0-2 0.2-4.2 0.8-6.7s1.2-5 2-7.5c0.8-2.6 1.8-5.1 2.9-7.6s2.2-4.8 3.4-6.8c1.2-2.1 2.4-3.8 3.6-5.2s2.3-2.4 3.4-2.9c0.3 0.1 0.7 0.3 1.2 0.5s0.9 0.5 1.4 0.8 0.9 0.6 1.3 0.9 0.7 0.6 0.9 0.8c-3.7 3-6.8 6.8-9.5 11.4-2.7 4.7-4.9 10.1-6.6 16.5 0.9-1.7 2-3.4 3.1-5 1.2-1.6 2.3-3 3.5-4.3 1.1-1.2 2.2-2.2 3.3-3 1-0.7 1.9-1.1 2.6-1.1 0.5 0.1 1 0.4 1.5 0.7s1 0.7 1.4 1.2 0.7 1 1 1.6 0.4 1.1 0.5 1.7c0 1.4-0.3 2.9-0.7 4.5-0.5 1.6-1.1 3.1-1.8 4.7-0.8 1.5-1.6 3-2.6 4.4s-2 2.6-3 3.7c-1.1 1.1-2.1 1.9-3.1 2.5-1.1 0.6-2 0.9-3 0.9-0.4 0-0.8 0-1.2-0.1s-0.8-0.2-1.1-0.4c-0.4-0.2-0.6-0.3-0.9-0.5-0.2 0.1-0.3-0.1-0.3-0.2zm20.8-10.2c0-2.3 0.3-4.6 0.8-6.9 0.6-2.2 1.3-4.4 2.3-6.4s2.2-3.9 3.6-5.5c1.4-1.7 2.9-3.1 4.6-4.4 1.7-1.2 3.4-2.2 5.3-2.9s3.8-1 5.8-1c2.3 0 4.1 0.5 5.4 1.5s1.9 2.3 1.9 4.1c0 0.7-0.1 1.3-0.3 2s-0.4 1.4-0.8 2.1c-0.3 0.7-0.8 1.3-1.2 2-0.5 0.6-1 1.2-1.5 1.6-0.9-0.1-1.6-0.5-2.2-1.2-0.6-0.6-1-1.4-1.2-2.3 1.2-1 2.1-2 2.8-3s1-2 1-2.9c0-1.5-0.9-2.2-2.8-2.2-0.8 0-1.6 0.2-2.4 0.5s-1.6 0.8-2.5 1.3c-0.8 0.6-1.6 1.3-2.4 2.1s-1.5 1.7-2.2 2.6c-4.8 6.7-7.1 13.5-7.1 20.5 0 2.5 0.4 4.4 1.1 5.9 0.8 1.5 1.8 2.4 3 2.7 1.4-0.3 3.3-1.2 5.5-2.8 2.2-1.5 4.6-3.4 7.2-5.8 0.3 0.3 0.5 0.7 0.6 1.1-1 1.3-2 2.5-3 3.6s-2.1 2.2-3.1 3.2-2 1.8-3 2.6c-1 0.7-1.9 1.3-2.7 1.7-4.1-0.1-7.3-1.2-9.4-3.5-2.1-2.4-3.1-5.8-3.1-10.3zm27.6 6.6c0-1.5 0.4-3.5 1.1-6.2 0.7-2.6 1.7-5.7 2.9-9.3 2.1-5.6 4-10.3 5.8-14.1 1.8-3.7 3.6-6.7 5.3-8.8 0.5 0.2 1 0.4 1.6 0.6 0.6 0.3 1.2 0.6 1.7 0.9 0.6 0.3 1.1 0.6 1.5 1 0.5 0.3 0.7 0.6 0.9 0.8-2.6 3.1-4.9 6.4-6.8 9.9s-3.8 7.6-5.5 12.1c-1.4 3.9-2.5 7.5-3.2 10.6-0.7 3.2-1.1 5.8-1.1 7.9v1s0 0.3 0 0.4c-0.5-0.1-0.9-0.2-1.2-0.4s-0.5-0.4-0.7-0.6c-0.1-0.2-0.2-0.4-0.5-0.7s-0.6-0.6-0.8-0.7c-0.3-0.2-0.5-0.7-0.8-1.6-0.1-0.8-0.2-1.7-0.2-2.8zm28.9-17c0.3 0 0.7 0.1 1.2 0.2 0.4 0.1 0.9 0.3 1.2 0.5 0.4 0.1 0.7 0.3 1 0.5 0.2 0.2 0.4 0.4 0.4 0.5-0.7 1.4-1.3 2.8-1.9 4.2s-1 2.8-1.4 4.1-0.7 2.5-0.9 3.6-0.3 2.1-0.3 2.9c0 0.9 0.1 1.7 0.3 2.3s0.5 1.1 1 1.3c-0.4 0.3-0.9 0.5-1.6 0.6-0.6 0.2-1.2 0.2-1.7 0.2-1.8 0-2.7-1.2-2.7-3.7 0-1.9 0.6-4.5 1.9-7.8-0.7 1.5-1.4 3-2.3 4.3-0.9 1.4-1.7 2.5-2.6 3.6s-1.9 2.2-2.8 2.8c-0.9 0.7-1.8 1-2.5 1.2-1.2-0.1-2.2-0.7-3-1.8s-1.2-2.5-1.2-4.3c0-1.9 0.4-3.8 1.2-5.9s1.8-4 3.1-5.8c1.2-1.8 2.6-3.2 4.1-4.4s2.9-1.8 4.2-1.9c0.3 0.1 0.7 0.3 1.1 0.6s0.8 0.6 1.2 1 0.7 0.8 1 1.2 0.4 0.8 0.4 1.1c-1.3 0.2-2.7 0.9-4.1 2s-2.7 2.4-3.8 4c-1.2 1.6-2.1 3.2-2.8 5s-1.1 3.4-1.1 4.9c0 0.6 0.2 1 0.7 1.2 1-0.2 2.1-1 3.3-2.5 1.3-1.4 2.8-3.7 4.6-6.7 0.3-0.6 0.7-1.3 1.1-2s0.8-1.5 1.3-2.3c0.4-0.8 0.9-1.6 1.3-2.4 0.4-0.7 0.8-1.5 1.1-2.3zm23.5 0.3c0 0.6-0.1 1.3-0.3 2s-0.4 1.3-0.7 1.9c-0.3 0.5-0.5 1-0.8 1.4s-0.6 0.6-0.8 0.5c-0.4 0-0.6-0.3-0.7-0.7 0-0.1 0-0.3 0.1-0.5s0.2-0.5 0.3-0.7c0.1-0.3 0.2-0.6 0.2-0.9 0.1-0.3 0.1-0.5 0.1-0.7 0-0.5-0.1-0.9-0.3-1.2s-0.5-0.4-0.8-0.4c-1.3 0-2.4 0.8-3 2.5-0.7 1.7-1.1 4.1-1.1 7.4 0 0.3 0 0.5 0.1 0.6 0.7 0 1.3-0.1 1.9-0.1h1.6v0.4c0 0.3-0.1 0.5-0.2 0.6-0.8 0.2-1.4 0.3-1.8 0.4-0.5 0.1-0.8 0.2-1 0.3s-0.5 0.2-0.5 0.3c-0.1 0.1-0.1 0.3-0.1 0.5v0.8s0 0.6 0 1c0 2.8-0.8 5-2.3 6.8-1.5 1.7-3.6 2.7-6.3 2.9-0.5 0-0.9-0.2-1.4-0.4s-1-0.5-1.4-0.9c-0.5-0.4-0.8-0.8-1.2-1.2-0.3-0.5-0.6-0.9-0.7-1.4 0-1.3 0.3-2.5 0.8-3.6s1.3-2.2 2.2-3.1 2-1.6 3.2-2.2c1.3-0.5 2.6-0.9 4.1-1 0-0.8-0.1-1.7-0.2-2.5s-0.3-1.6-0.5-2.3-0.4-1.5-0.5-2.2c-0.2-0.7-0.3-1.4-0.2-2.1 0-0.9 0.2-1.8 0.6-2.7s0.8-1.7 1.4-2.4 1.3-1.4 2.1-1.9c0.7-0.5 1.5-0.8 2.4-1 0.4 0.1 0.9 0.4 1.5 0.9s1.2 1 1.8 1.6 1.1 1.2 1.6 1.8c0.4 0.6 0.7 1.1 0.8 1.5zm-16.5 22.8c0.8-0.3 1.6-0.8 2.3-1.4s1.3-1.4 1.9-2.2c0.5-0.8 1-1.6 1.3-2.5s0.5-1.8 0.5-2.7c-0.7 0.1-1.4 0.4-2.2 0.9s-1.6 1.1-2.2 1.9c-0.7 0.7-1.3 1.5-1.8 2.2-0.5 0.8-0.7 1.4-0.7 2-0.1 0.8 0.3 1.4 0.9 1.8zm33.8-22.8c0 0.6-0.1 1.3-0.3 2s-0.4 1.3-0.7 1.9c-0.3 0.5-0.6 1-0.8 1.4-0.3 0.4-0.6 0.6-0.9 0.5-0.4 0-0.6-0.3-0.6-0.7 0-0.1 0-0.3 0.1-0.5s0.2-0.5 0.3-0.7c0.1-0.3 0.2-0.5 0.3-0.8s0.1-0.5 0.1-0.7c0-0.5-0.1-0.9-0.3-1.2-0.3-0.4-0.6-0.5-0.9-0.5-1.3 0-2.3 0.8-3.1 2.5-0.7 1.7-1 4.1-1 7.4v0.6c0.7 0 1.3-0.1 1.9-0.1h1.6c0 0.1 0.1 0.2 0.1 0.4 0 0.3-0.1 0.5-0.2 0.6-0.8 0.2-1.4 0.3-1.8 0.4s-0.8 0.2-1 0.3-0.4 0.2-0.4 0.3-0.1 0.3-0.1 0.5v0.8s0 0.6 0 1c0 2.8-0.8 5-2.3 6.8-1.5 1.7-3.6 2.7-6.3 2.9-0.5 0-1-0.2-1.5-0.4s-1-0.5-1.4-0.9-0.8-0.8-1.2-1.2c-0.3-0.5-0.6-0.9-0.7-1.4 0-1.3 0.3-2.5 0.8-3.6s1.3-2.2 2.2-3.1 2-1.6 3.2-2.2c1.3-0.5 2.6-0.9 4.1-1 0-0.8-0.1-1.7-0.2-2.5-0.2-0.8-0.3-1.6-0.5-2.3s-0.4-1.5-0.5-2.2c-0.2-0.7-0.2-1.4-0.2-2.1 0-0.9 0.2-1.8 0.5-2.7 0.4-0.9 0.9-1.7 1.5-2.4s1.3-1.4 2.1-1.9 1.6-0.9 2.5-1.1c0.4 0.1 0.9 0.4 1.5 0.9s1.2 1 1.8 1.6 1.1 1.2 1.6 1.8c0.3 0.7 0.6 1.2 0.7 1.6zm-16.5 22.8c0.8-0.3 1.6-0.8 2.3-1.4s1.3-1.4 1.9-2.2c0.5-0.8 1-1.6 1.3-2.5s0.5-1.8 0.5-2.7c-0.7 0.1-1.4 0.4-2.2 0.9s-1.5 1.1-2.2 1.9c-0.7 0.7-1.3 1.5-1.8 2.2-0.5 0.8-0.7 1.4-0.7 2-0.1 0.8 0.3 1.4 0.9 1.8z"/>
		</g>
		<g transform="matrix(6.8655 0 0 6.8655 249.35 -236.88)">
			<path class="st2" d="m8.1-1.8-12.5-12.5c-1-1-2.6-1-3.5 0-1 1-1 2.6 0 3.5l1.7 1.8 9 9-10.8 10.8c-1 1-1 2.6 0 3.5 0.5 0.5 1.1 0.7 1.8 0.7s1.3-0.2 1.8-0.7l12.5-12.5c0.9-1 0.9-2.6 0-3.6z"/>
		</g>
		<g id="icon-0_1_" transform="matrix(6.8655 0 0 6.8655 -248.15 -236.88)">
			<path class="st2" d="m8-10.7c1-1 1-2.6 0-3.5-1-1-2.6-1-3.5 0l-12.5 12.4c-1 1-1 2.6 0 3.5l12.5 12.5c0.5 0.5 1.1 0.7 1.8 0.7s1.3-0.2 1.8-0.7c1-1 1-2.6 0-3.5l-1.8-1.7-9-9 10.7-10.7z"/>
		</g>
		<g id="icon-0_2_" transform="matrix(6.8655 0 0 6.8655 .3845 -236.37)">
			<path class="st2" d="m22.5-20.8c0-0.1 0-0.2-0.1-0.2 0-0.1-0.1-0.2-0.1-0.2 0-0.1-0.1-0.1-0.1-0.2-0.2-0.3-0.4-0.5-0.7-0.7-0.1 0-0.1-0.1-0.2-0.1s-0.2-0.1-0.2-0.1c-0.1 0-0.2-0.1-0.3-0.1s-0.1 0-0.2-0.1h-0.5-30c-0.7 0-1.3 0.3-1.8 0.7l-10 10c-0.1 0.1-0.2 0.2-0.3 0.4 0 0.1-0.1 0.1-0.1 0.2s-0.1 0.2-0.1 0.2c0 0.1-0.1 0.2-0.1 0.2 0 0.1 0 0.1-0.1 0.2v0.5 30c0 1.4 1.1 2.5 2.5 2.5h30 0.5c0.1 0 0.1 0 0.2-0.1 0.1 0 0.2 0 0.2-0.1 0.1 0 0.2-0.1 0.2-0.1 0.1 0 0.1-0.1 0.2-0.1 0.1-0.1 0.3-0.2 0.4-0.3l10-10c0.5-0.5 0.7-1.1 0.7-1.8v-30-0.5-0.2zm-15 38.3h-25v-25h25v25zm1.5-30h-23l5-5h23l-5 5zm8.5 21.5-5 5v-23l5-5v23z"/>
		</g>
		<g id="tight-bounds" transform="matrix(3.1619 0 0 3.1619 .4646 .3108)">
			<rect class="st3" x="-158.1" y="-123.6" width="316.3" height="247.2"/>
		</g>
	</g>
</g>
<g class="st4">
	<path class="st0" d="m171.2 659.2 1.1-18.2c0-1.6-0.2-2.8-0.7-3.7-0.4-0.9-1.3-2.2-2.7-3.8l0.3-1.3c4.5-1 8.2-1.6 11.1-1.6s5 0.7 6.2 2c1.2 1.4 1.8 3.3 1.8 5.8s-0.5 6.1-1.3 11c-0.9 4.8-1.3 8-1.3 9.5s0.4 2.3 1.3 2.3c1.4 0 3.2-1.3 5.4-4 2.2-2.6 3.7-5.2 4.4-7.8l-6.4-6.2c0.2-2.4 0.8-4.7 1.6-6.8s1.5-3.6 2.2-4.5l1-1.4c7 0 10.5 2.9 10.5 8.7 0 3.8-1.1 8-3.4 12.7s-5.5 8.9-9.6 12.6-8.4 5.5-12.8 5.5c-5.7 0.1-8.7-3.5-8.7-10.8z"/>
	<path class="st0" d="m212.4 650c1.5-5.6 2.3-9 2.3-10.3s-1-3.1-3.1-5.6l0.2-1.3c5.3-1.2 11.5-1.7 18.5-1.7 0.5 1 0.7 2.6 0.7 4.7s-0.8 6.2-2.4 12.2-2.4 9.5-2.4 10.6c0 1.5 0.7 2.3 2.2 2.3 1 0 2.2-0.4 3.7-1.1 0.2-0.9 0.7-3.4 1.6-7.3 2-8.8 3-15.3 3-19.7 2.7-1.2 7.2-1.7 13.7-1.7h2.3c0 2.6-0.8 7.7-2.3 15.3s-2.3 12-2.3 13.1c0 1.2 0.2 1.7 0.7 1.7l4.3-1.1 1.6 4.3c-1.7 1.3-4.1 2.6-7.3 3.8s-6 1.8-8.4 1.8c-3.6 0-5.8-1.4-6.7-4.3-4.8 2.9-9.4 4.3-13.8 4.3-5.5 0-8.3-2.7-8.3-8.1-0.1-2.3 0.7-6.3 2.2-11.9z"/>
	<path class="st0" d="m258.9 653.3c0-7.2 2.2-12.8 6.6-16.8s9.8-6 16.2-6c4.5 0 8 1 10.7 2.9s4 4.5 4 7.8c0 2.4-0.7 4.5-2.2 6.4s-3.2 3.3-5.3 4.3c-4.4 2-8.2 3.2-11.5 3.6l-2.2 0.3c0.6 3.8 2.6 5.7 5.7 5.7 1.4 0 2.9-0.3 4.6-0.9s3-1.2 4-1.9l1.5-0.9 2.8 3.7-1 1c-0.3 0.3-1.2 1-2.5 2s-2.7 1.9-4.1 2.7-3.2 1.4-5.4 2-4.4 0.9-6.6 0.9c-4.9 0-8.7-1.4-11.4-4.3-2.5-2.9-3.9-7-3.9-12.5zm21.2-7.5c1.7-2.5 2.5-4.6 2.5-6.4s-0.5-2.6-1.5-2.6c-1.5 0-2.8 1.1-4 3.4s-1.9 5.5-2.1 9.7c1.7-0.2 3.4-1.6 5.1-4.1z"/>
	<path class="st0" d="m343 636.4c-1.8 0-3.3 1.6-4.6 4.8s-1.9 6.4-1.9 9.7c0 7.1 2.1 10.7 6.2 10.7 2.6 0 5.6-1.2 8.9-3.7l2.8 3.8c-2.4 2.7-5.4 4.8-8.7 6.3-3.4 1.5-6.8 2.3-10.1 2.3-4.5 0-8.2-1.4-11-4.1-2.8-2.8-4.2-6.9-4.2-12.5 0-6.7 2.1-12.2 6.2-16.5s9.6-6.4 16.3-6.4c4.4 0 7.8 0.9 10.3 2.7s3.7 4 3.7 6.7-0.8 5-2.4 7c-1.9 0-4-0.4-6.2-1.1s-4-1.6-5.4-2.7l1.3-6.5c-0.5-0.5-0.9-0.5-1.2-0.5z"/>
	<path class="st0" d="m374.6 670.1c-4.5 0-8.1-1.4-10.7-4.3s-3.9-6.9-3.9-12.1c0-6.4 1.9-11.8 5.7-16.2s8.7-6.7 14.9-6.7l3.9 0.3c1.4-0.4 2.7-0.6 3.9-0.6 2.9 0 5 1 6.2 3s2 4.8 2.1 8.4c2.4-0.1 4.8-0.5 7-1.1l1.2-0.3c0.4 0.4 0.7 1.6 0.9 3.7l0.1 1c-2.6 1.3-5.8 2.4-9.6 3.1-1.3 6.1-3.8 11.3-7.6 15.6-3.7 4.1-8.4 6.2-14.1 6.2zm1.8-16.8c0 5.4 1.4 8.1 4.1 8.1 1.9 0 3.9-1.2 5.9-3.7 2-2.4 3.4-5.4 4.1-8.9-5.9 0-8.9-2.8-8.9-8.5 0-1 0.1-2 0.3-3-0.6 0-1 0.1-1.3 0.3-1 1-1.9 3.1-2.8 6.3-1 3.1-1.4 6.3-1.4 9.4z"/>
	<path class="st0" d="m405.3 669.6h-2.2c0-4.1 0.8-9.9 2.4-17.3s2.4-11.5 2.4-12.3-0.3-1.7-0.8-2.7-1-1.7-1.6-2.3l-0.8-0.8 0.2-1.3c3.4-1.1 9.3-1.7 17.8-1.7 0.6 1.3 1.1 2.8 1.3 4.3 5-3.3 9.3-5 12.8-5 1.9 0 3.4 0.5 4.7 1.5s2.2 2.3 2.7 3.9c4.8-3.6 9.2-5.4 13.2-5.4 2.6 0 4.7 0.8 6.1 2.4 1.5 1.6 2.2 3.5 2.2 5.7s-0.6 5.8-1.9 10.8-1.9 8.2-1.9 9.6 0.2 2.1 0.7 2.1l4.5-1.1 1.6 4.3c-1.7 1.4-4.1 2.7-7.2 3.8-3 1.2-5.8 1.7-8.2 1.7-5 0-7.5-2.5-7.5-7.6 0-2.1 0.6-5.8 1.8-11s1.8-8.3 1.8-9.4-0.4-1.7-1.3-1.7c-1.2 0-2.5 0.5-3.9 1.5-0.2 0.9-0.6 3-1.4 6.3-1.6 7.4-2.4 14-2.4 19.7-2.7 1-7.9 1.5-15.6 1.5-0.2-0.6-0.3-2.1-0.3-4.5s0.6-6.6 1.9-12.6 1.9-9.5 1.9-10.4-0.4-1.4-1.2-1.4c-1 0-2.3 0.5-3.8 1.4-0.2 1-0.7 3.5-1.7 7.6-2 8.5-3 14.7-3 18.6-2.4 1.3-6.9 1.8-13.3 1.8z"/>
	<path class="st0" d="m471.6 688.6c-0.5-0.8-0.7-2.3-0.7-4.8 0-2.4 1.1-9 3.3-19.8s3.3-17.5 3.3-20.3c0-2.7-0.3-4.8-0.8-6.2s-1-2.3-1.6-2.7l-0.8-0.6 0.2-1.3c3.5-1.1 9.4-1.7 17.7-1.7 0.5 0.9 0.8 2 1.1 3.4 3.7-2.7 7.2-4 10.5-4s6 1.3 8.1 3.8 3.2 6.8 3.2 12.8-1.6 11.4-4.7 16c-3.2 4.6-7.8 7-13.9 7-2.7 0-5.3-0.5-7.8-1.6-1.3 6.6-2 12.3-2 17.3-4.1 1.5-9.2 2.4-15.1 2.7zm21-25.8c1.6 0 2.9-1.2 4-3.5 2-4.1 3-9 3-14.8 0-3.4-0.8-5.1-2.5-5.1-0.9 0-2 0.3-3.5 1-0.3 4.9-1.5 12.2-3.5 22 1 0.3 1.8 0.4 2.5 0.4z"/>
	<path class="st0" d="m535.6 670.1c-4.5 0-8.1-1.4-10.7-4.3s-3.9-6.9-3.9-12.1c0-6.4 1.9-11.8 5.7-16.2s8.7-6.7 14.9-6.7l3.9 0.3c1.4-0.4 2.7-0.6 3.9-0.6 2.9 0 5 1 6.2 3s2 4.8 2.1 8.4c2.4-0.1 4.8-0.5 7-1.1l1.2-0.3c0.4 0.4 0.7 1.6 0.9 3.7l0.1 1c-2.6 1.3-5.8 2.4-9.6 3.1-1.3 6.1-3.8 11.3-7.6 15.6-3.8 4.1-8.5 6.2-14.1 6.2zm1.7-16.8c0 5.4 1.4 8.1 4.1 8.1 1.9 0 3.9-1.2 5.9-3.7 2-2.4 3.4-5.4 4.1-8.9-5.9 0-8.9-2.8-8.9-8.5 0-1 0.1-2 0.3-3-0.6 0-1 0.1-1.3 0.3-1 1-1.9 3.1-2.8 6.3-0.9 3.1-1.4 6.3-1.4 9.4z"/>
	<path class="st0" d="m565.5 669.6h-1.5c0-3.6 0.8-9 2.5-16.4s2.5-11.5 2.5-12.6-0.3-2.2-0.8-3.2-1-1.8-1.6-2.3l-0.8-0.8 0.2-1.3c3.4-1.1 9.4-1.7 17.9-1.7 0.6 1.3 1 2.7 1.2 4.2 5.3-3.2 9.7-4.9 13.3-4.9 2.4 0 4.3 0.8 5.7 2.4s2.1 3.5 2.1 5.7-0.6 5.8-1.9 10.7-1.9 8.1-1.9 9.6 0.2 2.2 0.6 2.2l4.6-1.2 1.6 4.3c-1.9 1.4-4.3 2.7-7.3 3.9s-5.7 1.8-8.2 1.8c-4.9 0-7.4-2.6-7.4-7.7 0-2.2 0.6-5.8 1.8-10.8s1.8-8.1 1.8-9.4c0-1.2-0.4-1.9-1.2-1.9-1 0-2.4 0.6-4.2 1.7-0.2 1-0.8 3.6-1.7 7.6-1.9 8.4-2.8 14.5-2.8 18.2-2.7 1.3-7.6 1.9-14.5 1.9z"/>
	<path class="st0" d="m613.9 653.3c0-7.2 2.2-12.8 6.6-16.8s9.8-6 16.2-6c4.5 0 8 1 10.7 2.9s4 4.5 4 7.8c0 2.4-0.7 4.5-2.2 6.4s-3.2 3.3-5.3 4.3c-4.4 2-8.2 3.2-11.5 3.6l-2.2 0.3c0.6 3.8 2.6 5.7 5.7 5.7 1.4 0 2.9-0.3 4.6-0.9s3-1.2 4-1.9l1.5-0.9 2.8 3.7-1 1c-0.3 0.3-1.2 1-2.5 2s-2.7 1.9-4.1 2.7-3.2 1.4-5.4 2-4.4 0.9-6.6 0.9c-4.9 0-8.7-1.4-11.4-4.3-2.6-2.9-3.9-7-3.9-12.5zm21.1-7.5c1.7-2.5 2.5-4.6 2.5-6.4s-0.5-2.6-1.5-2.6c-1.5 0-2.8 1.1-4 3.4s-1.9 5.5-2.1 9.7c1.8-0.2 3.5-1.6 5.1-4.1z"/>
	<path class="st0" d="m657.6 669.6h-1.5c0-3.6 0.8-9 2.5-16.4s2.5-11.5 2.5-12.6-0.3-2.2-0.8-3.2-1-1.8-1.6-2.3l-0.8-0.8 0.2-1.3c3.4-1.1 9.4-1.7 17.9-1.7 0.6 1.3 1 2.7 1.2 4.2 5.3-3.2 9.7-4.9 13.3-4.9 2.4 0 4.3 0.8 5.7 2.4s2.1 3.5 2.1 5.7-0.6 5.8-1.9 10.7-1.9 8.1-1.9 9.6 0.2 2.2 0.6 2.2l4.6-1.2 1.6 4.3c-1.9 1.4-4.3 2.7-7.3 3.9s-5.7 1.8-8.2 1.8c-4.9 0-7.4-2.6-7.4-7.7 0-2.2 0.6-5.8 1.8-10.8s1.8-8.1 1.8-9.4c0-1.2-0.4-1.9-1.2-1.9-1 0-2.4 0.6-4.2 1.7-0.2 1-0.8 3.6-1.7 7.6-1.9 8.4-2.8 14.5-2.8 18.2-2.8 1.3-7.6 1.9-14.5 1.9z"/>
	<path class="st0" d="m736.6 638.3-7.5-0.6c-2.3 10.4-3.6 16.4-3.8 18.1s-0.3 3.1-0.3 4.1c0 1.1 0.3 1.6 1 1.6 0.8 0 2.3-0.5 4.6-1.6l2.1 4.2c-1.9 1.7-4.2 3.1-7 4.3s-5.6 1.7-8.2 1.7-4.7-0.7-6.3-2c-1.6-1.4-2.3-3.3-2.3-5.8s0.7-6.5 2.2-12c1.4-5.5 2.4-9.6 2.9-12.3-1.4 0.1-3.5 0.3-6.2 0.6-0.2-1.2-0.3-2.4-0.3-3.4 0-1.1 0.1-2.3 0.4-3.6h7c0.1-0.8 0.1-3.3 0.1-7.6l-0.2-3.6c5.6-1.9 11-2.8 16.1-2.8 0.4 0.9 0.6 2.5 0.6 4.8s-0.4 5.3-1.1 9.1h7.8c-0.2 2.5-0.6 4.7-1.6 6.8z"/>
	<path class="st0" d="m768.6 657.3c0 3.6-1.7 6.6-5 9.1s-7.2 3.7-11.7 3.7-8.1-0.8-11-2.3-4.3-2.9-4.3-4.3 0.9-3.1 2.7-5.2 3.6-3.3 5.4-3.7c2.7 1.5 5.1 4.7 7.2 9.7 1.7 0 2.5-0.6 2.5-1.7 0-0.8-0.2-1.6-0.7-2.3s-0.8-1.2-1-1.7c-0.2-0.4-0.6-1-1.2-1.7s-1-1.3-1.3-1.6c-1.5-1.7-2.8-3.3-3.9-4.8-2.8-3.5-4.2-6.5-4.2-9.2 0-2.6 0.8-4.8 2.5-6.5 2.9-3 7.2-4.4 12.8-4.4 3.5 0 6.4 0.7 8.4 2 2.1 1.4 3.1 3.4 3.1 6.1s-1.6 5.8-4.8 9.3c3 3.6 4.5 6.7 4.5 9.5zm-5.8-15.9c0.7-1.1 1-2 1-2.9s-0.4-1.5-1.1-2c-0.8-0.5-1.7-0.7-2.7-0.7s-1.8 0.2-2.4 0.7-0.8 1.1-0.8 2c0 0.8 1.2 2.6 3.7 5.4 0.8-0.6 1.6-1.5 2.3-2.5z"/>


	<path class="st5" d="m171.2 659.2 1.1-18.2c0-1.6-0.2-2.8-0.7-3.7-0.4-0.9-1.3-2.2-2.7-3.8l0.3-1.3c4.5-1 8.2-1.6 11.1-1.6s5 0.7 6.2 2c1.2 1.4 1.8 3.3 1.8 5.8s-0.5 6.1-1.3 11c-0.9 4.8-1.3 8-1.3 9.5s0.4 2.3 1.3 2.3c1.4 0 3.2-1.3 5.4-4 2.2-2.6 3.7-5.2 4.4-7.8l-6.4-6.2c0.2-2.4 0.8-4.7 1.6-6.8s1.5-3.6 2.2-4.5l1-1.4c7 0 10.5 2.9 10.5 8.7 0 3.8-1.1 8-3.4 12.7s-5.5 8.9-9.6 12.6-8.4 5.5-12.8 5.5c-5.7 0.1-8.7-3.5-8.7-10.8z"/>
	<path class="st5" d="m212.4 650c1.5-5.6 2.3-9 2.3-10.3s-1-3.1-3.1-5.6l0.2-1.3c5.3-1.2 11.5-1.7 18.5-1.7 0.5 1 0.7 2.6 0.7 4.7s-0.8 6.2-2.4 12.2-2.4 9.5-2.4 10.6c0 1.5 0.7 2.3 2.2 2.3 1 0 2.2-0.4 3.7-1.1 0.2-0.9 0.7-3.4 1.6-7.3 2-8.8 3-15.3 3-19.7 2.7-1.2 7.2-1.7 13.7-1.7h2.3c0 2.6-0.8 7.7-2.3 15.3s-2.3 12-2.3 13.1c0 1.2 0.2 1.7 0.7 1.7l4.3-1.1 1.6 4.3c-1.7 1.3-4.1 2.6-7.3 3.8s-6 1.8-8.4 1.8c-3.6 0-5.8-1.4-6.7-4.3-4.8 2.9-9.4 4.3-13.8 4.3-5.5 0-8.3-2.7-8.3-8.1-0.1-2.3 0.7-6.3 2.2-11.9z"/>
	<path class="st5" d="m258.9 653.3c0-7.2 2.2-12.8 6.6-16.8s9.8-6 16.2-6c4.5 0 8 1 10.7 2.9s4 4.5 4 7.8c0 2.4-0.7 4.5-2.2 6.4s-3.2 3.3-5.3 4.3c-4.4 2-8.2 3.2-11.5 3.6l-2.2 0.3c0.6 3.8 2.6 5.7 5.7 5.7 1.4 0 2.9-0.3 4.6-0.9s3-1.2 4-1.9l1.5-0.9 2.8 3.7-1 1c-0.3 0.3-1.2 1-2.5 2s-2.7 1.9-4.1 2.7-3.2 1.4-5.4 2-4.4 0.9-6.6 0.9c-4.9 0-8.7-1.4-11.4-4.3-2.5-2.9-3.9-7-3.9-12.5zm21.2-7.5c1.7-2.5 2.5-4.6 2.5-6.4s-0.5-2.6-1.5-2.6c-1.5 0-2.8 1.1-4 3.4s-1.9 5.5-2.1 9.7c1.7-0.2 3.4-1.6 5.1-4.1z"/>
	<path class="st5" d="m343 636.4c-1.8 0-3.3 1.6-4.6 4.8s-1.9 6.4-1.9 9.7c0 7.1 2.1 10.7 6.2 10.7 2.6 0 5.6-1.2 8.9-3.7l2.8 3.8c-2.4 2.7-5.4 4.8-8.7 6.3-3.4 1.5-6.8 2.3-10.1 2.3-4.5 0-8.2-1.4-11-4.1-2.8-2.8-4.2-6.9-4.2-12.5 0-6.7 2.1-12.2 6.2-16.5s9.6-6.4 16.3-6.4c4.4 0 7.8 0.9 10.3 2.7s3.7 4 3.7 6.7-0.8 5-2.4 7c-1.9 0-4-0.4-6.2-1.1s-4-1.6-5.4-2.7l1.3-6.5c-0.5-0.5-0.9-0.5-1.2-0.5z"/>
	<path class="st5" d="m374.6 670.1c-4.5 0-8.1-1.4-10.7-4.3s-3.9-6.9-3.9-12.1c0-6.4 1.9-11.8 5.7-16.2s8.7-6.7 14.9-6.7l3.9 0.3c1.4-0.4 2.7-0.6 3.9-0.6 2.9 0 5 1 6.2 3s2 4.8 2.1 8.4c2.4-0.1 4.8-0.5 7-1.1l1.2-0.3c0.4 0.4 0.7 1.6 0.9 3.7l0.1 1c-2.6 1.3-5.8 2.4-9.6 3.1-1.3 6.1-3.8 11.3-7.6 15.6-3.7 4.1-8.4 6.2-14.1 6.2zm1.8-16.8c0 5.4 1.4 8.1 4.1 8.1 1.9 0 3.9-1.2 5.9-3.7 2-2.4 3.4-5.4 4.1-8.9-5.9 0-8.9-2.8-8.9-8.5 0-1 0.1-2 0.3-3-0.6 0-1 0.1-1.3 0.3-1 1-1.9 3.1-2.8 6.3-1 3.1-1.4 6.3-1.4 9.4z"/>
	<path class="st5" d="m405.3 669.6h-2.2c0-4.1 0.8-9.9 2.4-17.3s2.4-11.5 2.4-12.3-0.3-1.7-0.8-2.7-1-1.7-1.6-2.3l-0.8-0.8 0.2-1.3c3.4-1.1 9.3-1.7 17.8-1.7 0.6 1.3 1.1 2.8 1.3 4.3 5-3.3 9.3-5 12.8-5 1.9 0 3.4 0.5 4.7 1.5s2.2 2.3 2.7 3.9c4.8-3.6 9.2-5.4 13.2-5.4 2.6 0 4.7 0.8 6.1 2.4 1.5 1.6 2.2 3.5 2.2 5.7s-0.6 5.8-1.9 10.8-1.9 8.2-1.9 9.6 0.2 2.1 0.7 2.1l4.5-1.1 1.6 4.3c-1.7 1.4-4.1 2.7-7.2 3.8-3 1.2-5.8 1.7-8.2 1.7-5 0-7.5-2.5-7.5-7.6 0-2.1 0.6-5.8 1.8-11s1.8-8.3 1.8-9.4-0.4-1.7-1.3-1.7c-1.2 0-2.5 0.5-3.9 1.5-0.2 0.9-0.6 3-1.4 6.3-1.6 7.4-2.4 14-2.4 19.7-2.7 1-7.9 1.5-15.6 1.5-0.2-0.6-0.3-2.1-0.3-4.5s0.6-6.6 1.9-12.6 1.9-9.5 1.9-10.4-0.4-1.4-1.2-1.4c-1 0-2.3 0.5-3.8 1.4-0.2 1-0.7 3.5-1.7 7.6-2 8.5-3 14.7-3 18.6-2.4 1.3-6.9 1.8-13.3 1.8z"/>
	<path class="st5" d="m471.6 688.6c-0.5-0.8-0.7-2.3-0.7-4.8 0-2.4 1.1-9 3.3-19.8s3.3-17.5 3.3-20.3c0-2.7-0.3-4.8-0.8-6.2s-1-2.3-1.6-2.7l-0.8-0.6 0.2-1.3c3.5-1.1 9.4-1.7 17.7-1.7 0.5 0.9 0.8 2 1.1 3.4 3.7-2.7 7.2-4 10.5-4s6 1.3 8.1 3.8 3.2 6.8 3.2 12.8-1.6 11.4-4.7 16c-3.2 4.6-7.8 7-13.9 7-2.7 0-5.3-0.5-7.8-1.6-1.3 6.6-2 12.3-2 17.3-4.1 1.5-9.2 2.4-15.1 2.7zm21-25.8c1.6 0 2.9-1.2 4-3.5 2-4.1 3-9 3-14.8 0-3.4-0.8-5.1-2.5-5.1-0.9 0-2 0.3-3.5 1-0.3 4.9-1.5 12.2-3.5 22 1 0.3 1.8 0.4 2.5 0.4z"/>
	<path class="st5" d="m535.6 670.1c-4.5 0-8.1-1.4-10.7-4.3s-3.9-6.9-3.9-12.1c0-6.4 1.9-11.8 5.7-16.2s8.7-6.7 14.9-6.7l3.9 0.3c1.4-0.4 2.7-0.6 3.9-0.6 2.9 0 5 1 6.2 3s2 4.8 2.1 8.4c2.4-0.1 4.8-0.5 7-1.1l1.2-0.3c0.4 0.4 0.7 1.6 0.9 3.7l0.1 1c-2.6 1.3-5.8 2.4-9.6 3.1-1.3 6.1-3.8 11.3-7.6 15.6-3.8 4.1-8.5 6.2-14.1 6.2zm1.7-16.8c0 5.4 1.4 8.1 4.1 8.1 1.9 0 3.9-1.2 5.9-3.7 2-2.4 3.4-5.4 4.1-8.9-5.9 0-8.9-2.8-8.9-8.5 0-1 0.1-2 0.3-3-0.6 0-1 0.1-1.3 0.3-1 1-1.9 3.1-2.8 6.3-0.9 3.1-1.4 6.3-1.4 9.4z"/>
	<path class="st5" d="m565.5 669.6h-1.5c0-3.6 0.8-9 2.5-16.4s2.5-11.5 2.5-12.6-0.3-2.2-0.8-3.2-1-1.8-1.6-2.3l-0.8-0.8 0.2-1.3c3.4-1.1 9.4-1.7 17.9-1.7 0.6 1.3 1 2.7 1.2 4.2 5.3-3.2 9.7-4.9 13.3-4.9 2.4 0 4.3 0.8 5.7 2.4s2.1 3.5 2.1 5.7-0.6 5.8-1.9 10.7-1.9 8.1-1.9 9.6 0.2 2.2 0.6 2.2l4.6-1.2 1.6 4.3c-1.9 1.4-4.3 2.7-7.3 3.9s-5.7 1.8-8.2 1.8c-4.9 0-7.4-2.6-7.4-7.7 0-2.2 0.6-5.8 1.8-10.8s1.8-8.1 1.8-9.4c0-1.2-0.4-1.9-1.2-1.9-1 0-2.4 0.6-4.2 1.7-0.2 1-0.8 3.6-1.7 7.6-1.9 8.4-2.8 14.5-2.8 18.2-2.7 1.3-7.6 1.9-14.5 1.9z"/>
	<path class="st5" d="m613.9 653.3c0-7.2 2.2-12.8 6.6-16.8s9.8-6 16.2-6c4.5 0 8 1 10.7 2.9s4 4.5 4 7.8c0 2.4-0.7 4.5-2.2 6.4s-3.2 3.3-5.3 4.3c-4.4 2-8.2 3.2-11.5 3.6l-2.2 0.3c0.6 3.8 2.6 5.7 5.7 5.7 1.4 0 2.9-0.3 4.6-0.9s3-1.2 4-1.9l1.5-0.9 2.8 3.7-1 1c-0.3 0.3-1.2 1-2.5 2s-2.7 1.9-4.1 2.7-3.2 1.4-5.4 2-4.4 0.9-6.6 0.9c-4.9 0-8.7-1.4-11.4-4.3-2.6-2.9-3.9-7-3.9-12.5zm21.1-7.5c1.7-2.5 2.5-4.6 2.5-6.4s-0.5-2.6-1.5-2.6c-1.5 0-2.8 1.1-4 3.4s-1.9 5.5-2.1 9.7c1.8-0.2 3.5-1.6 5.1-4.1z"/>
	<path class="st5" d="m657.6 669.6h-1.5c0-3.6 0.8-9 2.5-16.4s2.5-11.5 2.5-12.6-0.3-2.2-0.8-3.2-1-1.8-1.6-2.3l-0.8-0.8 0.2-1.3c3.4-1.1 9.4-1.7 17.9-1.7 0.6 1.3 1 2.7 1.2 4.2 5.3-3.2 9.7-4.9 13.3-4.9 2.4 0 4.3 0.8 5.7 2.4s2.1 3.5 2.1 5.7-0.6 5.8-1.9 10.7-1.9 8.1-1.9 9.6 0.2 2.2 0.6 2.2l4.6-1.2 1.6 4.3c-1.9 1.4-4.3 2.7-7.3 3.9s-5.7 1.8-8.2 1.8c-4.9 0-7.4-2.6-7.4-7.7 0-2.2 0.6-5.8 1.8-10.8s1.8-8.1 1.8-9.4c0-1.2-0.4-1.9-1.2-1.9-1 0-2.4 0.6-4.2 1.7-0.2 1-0.8 3.6-1.7 7.6-1.9 8.4-2.8 14.5-2.8 18.2-2.8 1.3-7.6 1.9-14.5 1.9z"/>
	<path class="st5" d="m736.6 638.3-7.5-0.6c-2.3 10.4-3.6 16.4-3.8 18.1s-0.3 3.1-0.3 4.1c0 1.1 0.3 1.6 1 1.6 0.8 0 2.3-0.5 4.6-1.6l2.1 4.2c-1.9 1.7-4.2 3.1-7 4.3s-5.6 1.7-8.2 1.7-4.7-0.7-6.3-2c-1.6-1.4-2.3-3.3-2.3-5.8s0.7-6.5 2.2-12c1.4-5.5 2.4-9.6 2.9-12.3-1.4 0.1-3.5 0.3-6.2 0.6-0.2-1.2-0.3-2.4-0.3-3.4 0-1.1 0.1-2.3 0.4-3.6h7c0.1-0.8 0.1-3.3 0.1-7.6l-0.2-3.6c5.6-1.9 11-2.8 16.1-2.8 0.4 0.9 0.6 2.5 0.6 4.8s-0.4 5.3-1.1 9.1h7.8c-0.2 2.5-0.6 4.7-1.6 6.8z"/>
	<path class="st5" d="m768.6 657.3c0 3.6-1.7 6.6-5 9.1s-7.2 3.7-11.7 3.7-8.1-0.8-11-2.3-4.3-2.9-4.3-4.3 0.9-3.1 2.7-5.2 3.6-3.3 5.4-3.7c2.7 1.5 5.1 4.7 7.2 9.7 1.7 0 2.5-0.6 2.5-1.7 0-0.8-0.2-1.6-0.7-2.3s-0.8-1.2-1-1.7c-0.2-0.4-0.6-1-1.2-1.7s-1-1.3-1.3-1.6c-1.5-1.7-2.8-3.3-3.9-4.8-2.8-3.5-4.2-6.5-4.2-9.2 0-2.6 0.8-4.8 2.5-6.5 2.9-3 7.2-4.4 12.8-4.4 3.5 0 6.4 0.7 8.4 2 2.1 1.4 3.1 3.4 3.1 6.1s-1.6 5.8-4.8 9.3c3 3.6 4.5 6.7 4.5 9.5zm-5.8-15.9c0.7-1.1 1-2 1-2.9s-0.4-1.5-1.1-2c-0.8-0.5-1.7-0.7-2.7-0.7s-1.8 0.2-2.4 0.7-0.8 1.1-0.8 2c0 0.8 1.2 2.6 3.7 5.4 0.8-0.6 1.6-1.5 2.3-2.5z"/>
</g>
</svg>
